<svg id="Слой_1" xmlns="http://www.w3.org/2000/svg" viewBox="0 0 143.2 50.8"><style>.st0{fill:#292f5b}</style><g id="XMLID_2_"><g id="XMLID_76_"><g id="XMLID_77_"><g id="XMLID_78_"><path id="XMLID_79_" class="st0" d="M6 50.8L50.8 6l7.4 7.4-37.3 37.4h26.7l24-24 24 24h26.7L84.9 13.4 92.4 6l44.8 44.8h6L92.4 0 81.9 10.4 71.6.1 61.2 10.4 50.8 0 0 50.8h6zm106-4.3H97.4L74.6 23.8l7.3-7.3 30.1 30zM71.6 6.1l7.3 7.3-7.3 7.3-7.3-7.3 7.3-7.3zm-3 17.7L45.8 46.5H31.1l30.1-30.1 7.4 7.4z"/></g></g></g></g></svg>